<?xml version="1.0" standalone="no"?>
<!DOCTYPE svg PUBLIC "-//W3C//DTD SVG 20010904//EN"
 "http://www.w3.org/TR/2001/REC-SVG-20010904/DTD/svg10.dtd">
<svg version="1.0" xmlns="http://www.w3.org/2000/svg"
 width="1130.000000pt" height="294.000000pt" viewBox="0 0 1130.000000 294.000000"
 preserveAspectRatio="xMidYMid meet">
<metadata>
Created by potrace 1.16, written by Peter Selinger 2001-2019
</metadata>
<g transform="translate(0.000000,294.000000) scale(0.100000,-0.100000)"
fill="#000000" stroke="none">
<path d="M1930 1470 l0 -910 25 0 25 0 0 910 0 910 -25 0 -25 0 0 -910z"/>
<path d="M890 2239 c-37 -15 -78 -58 -91 -96 l-11 -33 -239 0 c-195 0 -246 -3
-269 -15 -33 -17 -60 -61 -60 -97 0 -31 34 -85 59 -93 26 -8 26 -9 50 -245 11
-107 29 -276 40 -375 11 -99 25 -227 32 -285 13 -122 37 -175 96 -212 38 -23
39 -23 428 -26 422 -4 442 -2 500 49 48 42 62 92 80 274 9 88 27 255 40 370
13 116 29 259 35 320 11 109 11 109 50 142 21 19 41 46 45 63 8 35 -18 95 -49
113 -14 8 -101 14 -270 17 l-250 5 -7 29 c-22 79 -127 127 -209 95z m120 -44
c25 -13 60 -60 60 -80 0 -3 -54 -5 -120 -5 -124 0 -130 2 -109 41 27 52 112
73 169 44z m601 -143 c31 -26 31 -78 0 -104 -22 -17 -56 -18 -664 -18 l-641 0
-23 22 c-29 27 -30 71 -3 98 20 20 33 20 664 20 611 0 645 -1 667 -18z m-61
-192 c0 -17 -9 -106 -19 -198 -11 -92 -34 -302 -53 -467 -36 -328 -39 -339
-108 -379 -34 -20 -50 -21 -420 -21 -526 0 -481 -33 -528 396 -18 162 -42 371
-52 466 -11 94 -20 185 -20 202 l0 31 600 0 600 0 0 -30z"/>
<path d="M756 1651 c-42 -49 -76 -92 -76 -95 0 -11 147 -116 161 -116 8 1 32
25 53 55 22 30 42 55 46 55 4 0 12 -11 19 -24 10 -19 10 -27 0 -44 -7 -12 -10
-24 -7 -27 7 -7 145 -45 164 -45 7 0 33 34 59 76 36 57 45 78 35 84 -7 5 -19
6 -26 3 -8 -3 -27 27 -53 81 l-40 86 -130 0 -130 0 -75 -89z m137 -2 c31 -57
31 -56 -30 -128 l-30 -35 -46 34 c-26 18 -47 37 -47 42 0 14 104 138 115 138
6 0 23 -23 38 -51z m216 -39 l42 -90 -23 -34 c-23 -35 -32 -37 -88 -19 -8 2
-41 56 -73 119 l-58 114 79 0 79 0 42 -90z"/>
<path d="M1209 1413 c-35 -20 -74 -42 -86 -49 l-23 -14 35 -63 c19 -35 35 -67
35 -70 0 -4 -15 -7 -34 -7 -25 0 -35 5 -39 20 -3 11 -9 20 -14 20 -11 0 -101
-112 -110 -136 -6 -17 81 -154 98 -154 6 0 13 9 16 20 5 17 15 20 99 22 l94 3
53 115 53 115 -47 101 c-26 56 -51 104 -56 107 -5 3 -38 -10 -74 -30z m127
-179 c-4 -10 -23 -14 -63 -14 l-58 0 -29 54 c-16 29 -26 58 -22 65 4 6 28 22
54 35 l47 24 38 -75 c21 -41 36 -81 33 -89z m-49 -124 l-31 -71 -103 3 c-104
3 -104 3 -123 34 -19 30 -19 30 3 62 24 34 17 32 229 40 l56 2 -31 -70z"/>
<path d="M592 1431 c-11 -7 -11 -12 -1 -29 11 -17 7 -29 -35 -95 l-47 -76 78
-116 77 -116 121 3 120 3 0 95 0 95 -72 6 c-40 3 -75 8 -78 11 -3 3 0 17 6 32
9 20 17 24 34 20 31 -8 37 7 22 47 -8 19 -22 55 -31 82 l-18 47 -81 0 c-45 0
-88 -4 -95 -9z m163 -64 c14 -33 12 -37 -43 -142 -31 -60 -61 -110 -67 -111
-5 -2 -28 24 -49 57 l-39 60 22 37 c12 20 34 58 49 84 26 45 29 48 70 48 39 0
44 -3 57 -33z m104 -211 c6 -4 11 -32 11 -62 l0 -54 -94 0 c-52 0 -97 4 -101
9 -3 6 7 35 22 66 l27 55 62 -4 c34 -2 67 -7 73 -10z"/>
<path d="M4260 1814 c0 -86 -3 -154 -7 -152 -116 59 -128 63 -209 62 -68 0
-90 -5 -137 -28 -71 -34 -140 -110 -163 -179 -27 -78 -23 -190 8 -259 55 -120
142 -179 274 -186 88 -5 135 6 197 45 l37 23 0 -35 0 -35 60 0 60 0 0 450 0
450 -60 0 -60 0 0 -156z m-125 -223 c142 -64 163 -273 38 -368 -33 -25 -44
-28 -118 -28 -74 0 -85 3 -118 28 -125 95 -104 304 38 368 22 10 58 19 80 19
22 0 58 -9 80 -19z"/>
<path d="M8987 1963 c-4 -3 -7 -206 -7 -450 l0 -443 65 0 65 0 0 450 0 450
-58 0 c-32 0 -62 -3 -65 -7z"/>
<path d="M5270 1795 l0 -65 -55 0 -55 0 0 -60 0 -60 55 0 55 0 0 -192 c0 -106
5 -209 10 -228 11 -41 61 -94 103 -109 42 -16 144 -13 183 5 54 26 60 38 39
85 -10 22 -22 42 -25 44 -4 2 -24 -5 -46 -15 -49 -25 -75 -25 -108 1 l-26 20
0 195 0 194 90 0 90 0 0 60 0 60 -90 0 -90 0 0 65 0 65 -65 0 -65 0 0 -65z"/>
<path d="M10000 1795 l0 -65 -55 0 -55 0 0 -60 0 -60 55 0 55 0 0 -192 c0
-106 5 -209 10 -228 11 -41 61 -94 103 -109 42 -16 144 -13 183 5 54 26 60 38
39 85 -10 22 -22 42 -25 44 -4 2 -24 -5 -46 -15 -49 -25 -75 -25 -108 1 l-26
20 0 195 0 194 90 0 90 0 0 60 0 60 -90 0 -90 0 0 65 0 65 -65 0 -65 0 0 -65z"/>
<path d="M2467 1720 c-174 -44 -278 -206 -246 -384 30 -166 152 -266 324 -266
173 0 294 100 325 268 28 155 -61 319 -198 367 -59 20 -155 27 -205 15z m171
-136 c58 -29 86 -66 102 -138 16 -70 -1 -142 -46 -194 -42 -50 -87 -65 -169
-60 -49 3 -70 10 -99 31 -124 95 -102 304 39 368 56 26 112 24 173 -7z"/>
<path d="M2997 1723 c-4 -3 -7 -152 -7 -330 l0 -323 64 0 64 0 4 203 c3 194 4
204 28 246 32 57 86 86 160 85 73 0 116 -24 141 -77 16 -37 19 -67 19 -249 l0
-208 66 0 66 0 -4 233 c-3 264 -10 291 -85 358 -53 48 -101 64 -194 64 -64 -1
-85 -5 -137 -31 l-62 -31 0 34 0 33 -58 0 c-32 0 -62 -3 -65 -7z"/>
<path d="M4747 1720 c-98 -25 -192 -110 -223 -202 -20 -60 -22 -165 -6 -224
28 -98 123 -190 225 -215 26 -6 84 -10 130 -7 90 5 160 34 212 88 l26 27 -40
44 -39 44 -29 -26 c-47 -44 -87 -59 -158 -59 -90 0 -156 35 -191 102 -31 60
-38 58 236 58 l250 0 0 48 c0 96 -46 201 -111 257 -69 58 -194 87 -282 65z
m151 -125 c56 -24 112 -86 112 -125 0 -6 -62 -10 -185 -10 -177 0 -185 1 -185
20 0 28 58 90 105 111 49 23 104 24 153 4z"/>
<path d="M5887 1720 c-98 -25 -192 -110 -223 -202 -20 -60 -22 -165 -6 -224
28 -98 123 -190 225 -215 26 -6 84 -10 130 -7 90 5 160 34 212 88 l26 27 -40
44 -39 44 -29 -26 c-47 -44 -87 -59 -158 -59 -90 0 -156 35 -191 102 -31 60
-38 58 236 58 l250 0 0 48 c0 96 -46 201 -111 257 -69 58 -194 87 -282 65z
m151 -125 c56 -24 112 -86 112 -125 0 -6 -62 -10 -185 -10 -177 0 -185 1 -185
20 0 28 58 90 105 111 49 23 104 24 153 4z"/>
<path d="M6397 1723 c-4 -3 -7 -152 -7 -330 l0 -323 65 0 65 0 0 178 c0 97 5
197 11 221 20 90 75 134 170 135 64 1 99 -18 129 -67 18 -29 20 -52 20 -249
l0 -218 65 0 65 0 0 183 c1 244 12 286 91 332 47 27 138 27 176 -1 58 -42 63
-68 63 -301 l0 -213 66 0 66 0 -4 238 c-4 251 -8 271 -58 335 -64 81 -229 108
-340 56 -30 -14 -66 -35 -79 -46 -24 -19 -24 -19 -48 3 -83 76 -218 92 -333
38 l-66 -31 4 34 4 33 -59 0 c-33 0 -63 -3 -66 -7z"/>
<path d="M7823 1720 c-175 -37 -285 -205 -252 -384 14 -78 40 -128 95 -182 66
-64 136 -87 249 -82 108 5 153 25 214 94 l41 47 -50 34 -51 34 -26 -32 c-35
-41 -79 -59 -148 -59 -140 0 -225 115 -194 261 33 154 225 210 335 98 l37 -38
44 31 c23 17 43 37 43 44 0 25 -89 102 -137 118 -60 21 -145 28 -200 16z"/>
<path d="M8457 1720 c-174 -44 -278 -206 -246 -384 30 -166 152 -266 324 -266
173 0 294 100 325 268 28 155 -61 319 -198 367 -59 20 -155 27 -205 15z m171
-136 c58 -29 86 -66 102 -138 16 -70 -1 -142 -46 -194 -42 -50 -87 -65 -169
-60 -49 3 -70 10 -99 31 -124 95 -102 304 39 368 56 26 112 24 173 -7z"/>
<path d="M9477 1720 c-98 -25 -192 -110 -223 -202 -20 -60 -22 -165 -6 -224
28 -98 123 -190 225 -215 26 -6 84 -10 130 -7 90 5 160 34 212 88 l26 27 -40
44 -39 44 -29 -26 c-47 -44 -87 -59 -158 -59 -90 0 -156 35 -191 102 -31 60
-38 58 236 58 l250 0 0 48 c0 96 -46 201 -111 257 -69 58 -194 87 -282 65z
m151 -125 c56 -24 112 -86 112 -125 0 -6 -62 -10 -185 -10 -177 0 -185 1 -185
20 0 28 58 90 105 111 49 23 104 24 153 4z"/>
<path d="M10600 1720 c-45 -10 -129 -48 -164 -75 -16 -12 -17 -18 -7 -42 6
-15 20 -39 31 -53 17 -23 20 -23 37 -8 64 56 188 83 255 55 42 -18 78 -68 78
-108 l0 -27 -132 -4 c-172 -6 -233 -30 -275 -113 -21 -39 -20 -122 1 -162 42
-83 115 -117 238 -111 75 4 96 9 172 46 5 3 7 -7 4 -22 -5 -26 -5 -26 59 -26
l65 0 -4 243 c-3 225 -4 245 -25 282 -27 52 -68 90 -117 110 -47 20 -155 27
-216 15z m230 -410 c0 -30 -7 -48 -30 -74 -39 -44 -86 -59 -163 -54 -50 4 -64
9 -84 32 -25 30 -29 56 -12 87 19 36 66 48 182 49 l107 0 0 -40z"/>
</g>
</svg>
